<svg viewBox="-110 -60 220 120" style="stroke-width:0.2 ;stroke:#000000" xmlns="http://www.w3.org/2000/svg">
<polygon style="fill:#ffff80;"   points="-100,-0 -93.1116292502734,-0 -90.9830056250526,-5.30005631359828 -97.8713763747792,-5.30005631359828" />
<polygon style="fill:#ffff80;"   points="-100,0 -93.1116292502734,0 -90.9830056250526,5.30005631359828 -97.8713763747792,5.30005631359828" />
<polygon style="fill:#8080ff;"   points="-87.5388202501893,-3.27561494409221 -85.4101966249684,-8.57567125769049 -90.9830056250526,-5.30005631359828 -93.1116292502734,0" />
<polygon style="fill:#8080ff;"   points="-87.5388202501893,3.27561494409221 -93.1116292502734,0 -90.9830056250526,5.30005631359828 -85.4101966249685,8.57567125769049" />
<polygon style="fill:#ffff80;"   points="-93.1116292502734,-0 -87.5388202501893,-3.27561494409221 -81.9660112501052,-0 -87.5388202501893,3.27561494409221" />
<polygon style="fill:#ffff80;"   points="-85.4101966249684,-8.57567125769049 -87.5388202501893,-3.27561494409221 -81.9660112501052,-0 -79.8373876248843,-5.30005631359828" />
<polygon style="fill:#ffff80;"   points="-85.4101966249684,8.57567125769049 -79.8373876248843,5.30005631359828 -81.9660112501052,0 -87.5388202501893,3.27561494409221" />
<polygon style="fill:#8080ff;"   points="-77.7087639996635,0 -79.8373876248843,5.30005631359828 -81.9660112501052,0 -79.8373876248844,-5.30005631359828" />
<polygon style="fill:#ffff80;"   points="-85.4101966249684,-8.57567125769049 -79.8373876248843,-11.8512862017827 -74.2645786248002,-8.57567125769049 -79.8373876248843,-5.30005631359828" />
<polygon style="fill:#ffff80;"   points="-85.4101966249684,8.57567125769049 -79.8373876248843,11.8512862017827 -74.2645786248002,8.57567125769049 -79.8373876248843,5.30005631359828" />
<polygon style="fill:#ffff80;"   points="-79.8373876248843,-11.8512862017827 -72.9490168751577,-11.8512862017827 -70.8203932499369,-17.151342515381 -77.7087639996635,-17.151342515381" />
<polygon style="fill:#ffff80;"   points="-79.8373876248843,-5.30005631359828 -77.7087639996635,-0 -70.8203932499369,-0 -72.9490168751577,-5.30005631359828" />
<polygon style="fill:#ffff80;"   points="-79.8373876248843,5.30005631359828 -77.7087639996635,0 -70.8203932499369,0 -72.9490168751577,5.30005631359828" />
<polygon style="fill:#ffff80;"   points="-79.8373876248843,11.8512862017827 -72.9490168751577,11.8512862017827 -70.8203932499369,17.151342515381 -77.7087639996635,17.151342515381" />
<polygon style="fill:#8080ff;"   points="-72.9490168751577,-11.8512862017827 -67.3762078750736,-8.57567125769049 -74.2645786248002,-8.57567125769049 -79.8373876248843,-11.8512862017827" />
<polygon style="fill:#8080ff;"   points="-72.9490168751577,-5.30005631359828 -79.8373876248843,-5.30005631359828 -74.2645786248002,-8.57567125769049 -67.3762078750736,-8.57567125769049" />
<polygon style="fill:#8080ff;"   points="-72.9490168751577,5.30005631359828 -67.3762078750736,8.57567125769049 -74.2645786248002,8.57567125769049 -79.8373876248843,5.30005631359828" />
<polygon style="fill:#8080ff;"   points="-72.9490168751577,11.8512862017827 -79.8373876248843,11.8512862017827 -74.2645786248002,8.57567125769049 -67.3762078750736,8.57567125769049" />
<polygon style="fill:#ffff80;"   points="-67.3762078750736,-8.57567125769049 -65.2475842498528,-3.27561494409221 -70.8203932499369,-0 -72.9490168751578,-5.30005631359828" />
<polygon style="fill:#ffff80;"   points="-67.3762078750736,8.57567125769049 -65.2475842498528,3.27561494409221 -70.8203932499369,0 -72.9490168751578,5.30005631359828" />
<polygon style="fill:#ffff80;"   points="-67.3762078750736,-8.57567125769049 -65.2475842498528,-13.8757275712888 -70.8203932499369,-17.151342515381 -72.9490168751577,-11.8512862017827" />
<polygon style="fill:#ffff80;"   points="-67.3762078750736,8.57567125769049 -72.9490168751577,11.8512862017827 -70.8203932499369,17.151342515381 -65.2475842498528,13.8757275712888" />
<polygon style="fill:#8080ff;"   points="-67.3762078750736,-19.1757838848871 -65.2475842498528,-13.8757275712888 -70.8203932499369,-17.151342515381 -72.9490168751577,-22.4513988289793" />
<polygon style="fill:#8080ff;"   points="-67.3762078750736,19.1757838848871 -65.2475842498528,13.8757275712888 -70.8203932499369,17.151342515381 -72.9490168751577,22.4513988289793" />
<polygon style="fill:#ffff80;"   points="-59.6747752497687,-0 -65.2475842498528,-3.27561494409221 -70.8203932499369,-0 -65.2475842498528,3.27561494409221" />
<polygon style="fill:#8080ff;"   points="-65.2475842498528,-3.27561494409221 -67.3762078750736,-8.57567125769049 -61.8033988749895,-5.30005631359828 -59.6747752497687,0" />
<polygon style="fill:#8080ff;"   points="-65.2475842498528,3.27561494409221 -59.6747752497687,0 -61.8033988749895,5.30005631359828 -67.3762078750736,8.57567125769049" />
<polygon style="fill:#ffff80;"   points="-65.2475842498528,-13.8757275712888 -67.3762078750736,-19.1757838848871 -61.8033988749895,-22.4513988289793 -59.6747752497687,-17.151342515381" />
<polygon style="fill:#ffff80;"   points="-65.2475842498528,13.8757275712888 -67.3762078750736,19.1757838848871 -61.8033988749895,22.4513988289793 -59.6747752497687,17.151342515381" />
<polygon style="fill:#ffff80;"   points="-67.3762078750736,-8.57567125769049 -65.2475842498528,-13.8757275712888 -58.3592135001262,-13.8757275712888 -60.487837125347,-8.5756712576905" />
<polygon style="fill:#ffff80;"   points="-67.3762078750736,8.57567125769049 -60.487837125347,8.57567125769049 -58.3592135001262,13.8757275712888 -65.2475842498528,13.8757275712888" />
<polygon style="fill:#8080ff;"   points="-60.487837125347,-8.57567125769049 -67.3762078750736,-8.57567125769049 -61.8033988749895,-5.30005631359828 -54.9150281252629,-5.30005631359828" />
<polygon style="fill:#8080ff;"   points="-60.487837125347,8.57567125769049 -67.3762078750736,8.57567125769049 -61.8033988749895,5.30005631359828 -54.9150281252629,5.30005631359828" />
<polygon style="fill:#8080ff;"   points="-59.6747752497687,-17.151342515381 -52.7864045000421,-17.151342515381 -58.3592135001262,-13.8757275712888 -65.2475842498528,-13.8757275712888" />
<polygon style="fill:#8080ff;"   points="-59.6747752497687,17.151342515381 -52.7864045000421,17.151342515381 -58.3592135001262,13.8757275712888 -65.2475842498528,13.8757275712888" />
<polygon style="fill:#ffff80;"   points="-52.7864045000421,-0 -54.9150281252629,-5.30005631359828 -61.8033988749895,-5.30005631359828 -59.6747752497687,0" />
<polygon style="fill:#ffff80;"   points="-52.7864045000421,0 -54.9150281252629,5.30005631359828 -61.8033988749895,5.30005631359828 -59.6747752497687,0" />
<polygon style="fill:#ffff80;"   points="-52.7864045000421,-27.7514551425776 -54.9150281252629,-22.4513988289793 -61.8033988749895,-22.4513988289793 -59.6747752497687,-27.7514551425776" />
<polygon style="fill:#ffff80;"   points="-52.7864045000421,-17.151342515381 -54.9150281252629,-22.4513988289793 -61.8033988749895,-22.4513988289793 -59.6747752497687,-17.151342515381" />
<polygon style="fill:#ffff80;"   points="-52.7864045000421,17.151342515381 -54.9150281252629,22.4513988289793 -61.8033988749895,22.4513988289793 -59.6747752497687,17.151342515381" />
<polygon style="fill:#ffff80;"   points="-52.7864045000421,27.7514551425776 -54.9150281252629,22.4513988289793 -61.8033988749895,22.4513988289793 -59.6747752497687,27.7514551425776" />
<polygon style="fill:#ffff80;"   points="-54.9150281252629,-5.30005631359828 -60.487837125347,-8.57567125769049 -58.3592135001262,-13.8757275712888 -52.7864045000421,-10.6001126271966" />
<polygon style="fill:#ffff80;"   points="-54.9150281252629,5.30005631359828 -60.487837125347,8.57567125769049 -58.3592135001262,13.8757275712888 -52.7864045000421,10.6001126271966" />
<polygon style="fill:#ffff80;"   points="-47.2135954999579,-13.8757275712888 -52.7864045000421,-10.6001126271966 -58.3592135001262,-13.8757275712888 -52.7864045000421,-17.151342515381" />
<polygon style="fill:#ffff80;"   points="-47.2135954999579,13.8757275712888 -52.7864045000421,10.6001126271966 -58.3592135001262,13.8757275712888 -52.7864045000421,17.151342515381" />
<polygon style="fill:#8080ff;"   points="-54.9150281252629,-22.4513988289793 -52.7864045000421,-17.151342515381 -50.6577808748212,-22.4513988289793 -52.7864045000421,-27.7514551425776" />
<polygon style="fill:#8080ff;"   points="-54.9150281252629,22.4513988289793 -52.7864045000421,27.7514551425776 -50.6577808748212,22.4513988289793 -52.7864045000421,17.151342515381" />
<polygon style="fill:#8080ff;"   points="-52.7864045000421,-10.6001126271966 -54.9150281252629,-5.30005631359828 -49.3422191251788,-8.57567125769049 -47.2135954999579,-13.8757275712888" />
<polygon style="fill:#ffff80;"   points="-52.7864045000421,-0 -47.2135954999579,-3.27561494409221 -49.3422191251788,-8.57567125769049 -54.9150281252629,-5.30005631359828" />
<polygon style="fill:#ffff80;"   points="-52.7864045000421,0 -54.9150281252629,5.30005631359828 -49.3422191251788,8.57567125769049 -47.2135954999579,3.27561494409221" />
<polygon style="fill:#8080ff;"   points="-52.7864045000421,10.6001126271966 -47.2135954999579,13.8757275712888 -49.3422191251788,8.57567125769049 -54.9150281252629,5.30005631359828" />
<polygon style="fill:#ffff80;"   points="-47.2135954999579,-13.8757275712888 -45.0849718747371,-19.1757838848871 -50.6577808748212,-22.4513988289793 -52.7864045000421,-17.151342515381" />
<polygon style="fill:#ffff80;"   points="-47.2135954999579,13.8757275712888 -52.7864045000421,17.151342515381 -50.6577808748212,22.4513988289793 -45.0849718747371,19.1757838848871" />
<polygon style="fill:#8080ff;"   points="-47.2135954999579,-24.4758401984853 -52.7864045000421,-27.7514551425776 -50.6577808748212,-22.4513988289793 -45.0849718747371,-19.1757838848871" />
<polygon style="fill:#8080ff;"   points="-47.2135954999579,24.4758401984853 -45.0849718747371,19.1757838848871 -50.6577808748212,22.4513988289793 -52.7864045000421,27.7514551425776" />
<polygon style="fill:#8080ff;"   points="-45.0849718747371,-8.57567125769049 -47.2135954999579,-13.8757275712888 -49.3422191251788,-8.57567125769049 -47.2135954999579,-3.27561494409221" />
<polygon style="fill:#ffff80;"   points="-52.7864045000421,0 -47.2135954999579,3.27561494409221 -41.6407864998738,0 -47.2135954999579,-3.27561494409221" />
<polygon style="fill:#8080ff;"   points="-45.0849718747371,8.57567125769049 -47.2135954999579,3.27561494409221 -49.3422191251788,8.57567125769049 -47.2135954999579,13.8757275712888" />
<polygon style="fill:#ffff80;"   points="-52.7864045000421,-27.7514551425776 -47.2135954999579,-24.4758401984853 -41.6407864998738,-27.7514551425776 -47.2135954999579,-31.0270700866698" />
<polygon style="fill:#ffff80;"   points="-52.7864045000421,27.7514551425776 -47.2135954999579,24.4758401984853 -41.6407864998738,27.7514551425776 -47.2135954999579,31.0270700866698" />
<polygon style="fill:#ffff80;"   points="-45.0849718747371,-19.1757838848871 -47.2135954999579,-24.4758401984853 -41.6407864998738,-27.7514551425776 -39.512162874653,-22.4513988289793" />
<polygon style="fill:#ffff80;"   points="-45.0849718747371,19.1757838848871 -39.512162874653,22.4513988289793 -41.6407864998738,27.7514551425776 -47.2135954999579,24.4758401984854" />
<polygon style="fill:#ffff80;"   points="-47.2135954999579,-13.8757275712888 -40.3252247502313,-13.8757275712888 -38.1966011250105,-19.1757838848871 -45.0849718747371,-19.1757838848871" />
<polygon style="fill:#ffff80;"   points="-47.2135954999579,-13.8757275712888 -40.3252247502313,-13.8757275712888 -38.1966011250105,-8.5756712576905 -45.0849718747371,-8.57567125769049" />
<polygon style="fill:#ffff80;"   points="-47.2135954999579,-3.27561494409221 -40.3252247502313,-3.27561494409221 -38.1966011250105,-8.5756712576905 -45.0849718747371,-8.57567125769049" />
<polygon style="fill:#ffff80;"   points="-47.2135954999579,3.27561494409221 -45.0849718747371,8.57567125769049 -38.1966011250105,8.5756712576905 -40.3252247502313,3.27561494409221" />
<polygon style="fill:#ffff80;"   points="-47.2135954999579,13.8757275712888 -45.0849718747371,8.57567125769049 -38.1966011250105,8.5756712576905 -40.3252247502313,13.8757275712888" />
<polygon style="fill:#ffff80;"   points="-47.2135954999579,13.8757275712888 -45.0849718747371,19.1757838848871 -38.1966011250105,19.1757838848871 -40.3252247502313,13.8757275712888" />
<polygon style="fill:#ffff80;"   points="-47.2135954999579,-31.0270700866698 -40.3252247502313,-31.0270700866698 -38.1966011250105,-36.327126400268 -45.0849718747371,-36.327126400268" />
<polygon style="fill:#ffff80;"   points="-47.2135954999579,31.0270700866698 -40.3252247502313,31.0270700866698 -38.1966011250105,36.327126400268 -45.0849718747371,36.327126400268" />
<polygon style="fill:#8080ff;"   points="-40.3252247502313,-3.27561494409221 -47.2135954999579,-3.27561494409221 -41.6407864998738,-0 -34.7524157501472,0" />
<polygon style="fill:#8080ff;"   points="-40.3252247502313,3.27561494409221 -34.7524157501472,0 -41.6407864998738,0 -47.2135954999579,3.27561494409221" />
<polygon style="fill:#8080ff;"   points="-40.3252247502313,-31.0270700866698 -34.7524157501472,-27.7514551425776 -41.6407864998738,-27.7514551425776 -47.2135954999579,-31.0270700866698" />
<polygon style="fill:#8080ff;"   points="-40.3252247502313,31.0270700866698 -47.2135954999579,31.0270700866698 -41.6407864998738,27.7514551425776 -34.7524157501472,27.7514551425776" />
<polygon style="fill:#8080ff;"   points="-39.512162874653,-22.4513988289793 -32.6237921249264,-22.4513988289793 -38.1966011250105,-19.1757838848871 -45.0849718747371,-19.1757838848871" />
<polygon style="fill:#8080ff;"   points="-39.512162874653,22.4513988289793 -32.6237921249264,22.4513988289793 -38.1966011250105,19.1757838848871 -45.0849718747371,19.1757838848871" />
<polygon style="fill:#ffff80;"   points="-32.6237921249264,-22.4513988289793 -34.7524157501472,-27.7514551425776 -41.6407864998738,-27.7514551425776 -39.512162874653,-22.4513988289793" />
<polygon style="fill:#ffff80;"   points="-32.6237921249264,22.4513988289793 -34.7524157501472,27.7514551425776 -41.6407864998738,27.7514551425776 -39.512162874653,22.4513988289793" />
<polygon style="fill:#ffff80;"   points="-34.7524157501472,-0 -32.6237921249264,-5.30005631359828 -38.1966011250105,-8.5756712576905 -40.3252247502313,-3.27561494409221" />
<polygon style="fill:#ffff80;"   points="-34.7524157501472,0 -40.3252247502313,3.27561494409221 -38.1966011250105,8.5756712576905 -32.6237921249264,5.30005631359828" />
<polygon style="fill:#ffff80;"   points="-34.7524157501472,-27.7514551425776 -40.3252247502313,-31.0270700866698 -38.1966011250105,-36.327126400268 -32.6237921249264,-33.0515114561758" />
<polygon style="fill:#8080ff;"   points="-34.7524157501472,-17.151342515381 -32.6237921249264,-22.4513988289793 -38.1966011250105,-19.1757838848871 -40.3252247502313,-13.8757275712888" />
<polygon style="fill:#8080ff;"   points="-34.7524157501472,-10.6001126271966 -32.6237921249264,-5.30005631359828 -38.1966011250105,-8.5756712576905 -40.3252247502313,-13.8757275712888" />
<polygon style="fill:#8080ff;"   points="-34.7524157501472,10.6001126271966 -32.6237921249264,5.30005631359828 -38.1966011250105,8.5756712576905 -40.3252247502313,13.8757275712888" />
<polygon style="fill:#8080ff;"   points="-34.7524157501472,17.151342515381 -40.3252247502313,13.8757275712888 -38.1966011250105,19.1757838848871 -32.6237921249264,22.4513988289793" />
<polygon style="fill:#ffff80;"   points="-34.7524157501472,27.7514551425776 -40.3252247502313,31.0270700866698 -38.1966011250105,36.327126400268 -32.6237921249264,33.0515114561758" />
<polygon style="fill:#ffff80;"   points="-40.3252247502313,-13.8757275712888 -34.7524157501472,-17.151342515381 -29.1796067500631,-13.8757275712888 -34.7524157501472,-10.6001126271966" />
<polygon style="fill:#ffff80;"   points="-40.3252247502313,13.8757275712888 -34.7524157501472,17.151342515381 -29.1796067500631,13.8757275712888 -34.7524157501472,10.6001126271966" />
<polygon style="fill:#ffff80;"   points="-27.0509831248423,-36.327126400268 -32.6237921249264,-39.6027413443603 -38.1966011250105,-36.327126400268 -32.6237921249264,-33.0515114561758" />
<polygon style="fill:#ffff80;"   points="-27.0509831248423,36.327126400268 -32.6237921249264,33.0515114561758 -38.1966011250105,36.327126400268 -32.6237921249264,39.6027413443602" />
<polygon style="fill:#8080ff;"   points="-32.6237921249264,-33.0515114561758 -27.0509831248423,-36.327126400268 -29.1796067500631,-31.0270700866698 -34.7524157501472,-27.7514551425776" />
<polygon style="fill:#ffff80;"   points="-32.6237921249264,-22.4513988289793 -27.0509831248423,-25.7270137730715 -29.1796067500631,-31.0270700866698 -34.7524157501472,-27.7514551425776" />
<polygon style="fill:#ffff80;"   points="-32.6237921249264,-22.4513988289793 -34.7524157501472,-17.151342515381 -29.1796067500631,-13.8757275712888 -27.0509831248423,-19.1757838848871" />
<polygon style="fill:#ffff80;"   points="-32.6237921249264,-5.30005631359828 -27.0509831248423,-8.5756712576905 -29.1796067500631,-13.8757275712888 -34.7524157501472,-10.6001126271966" />
<polygon style="fill:#ffff80;"   points="-32.6237921249264,5.30005631359828 -34.7524157501472,10.6001126271966 -29.1796067500631,13.8757275712888 -27.0509831248423,8.5756712576905" />
<polygon style="fill:#ffff80;"   points="-32.6237921249264,22.4513988289793 -34.7524157501472,17.151342515381 -29.1796067500631,13.8757275712888 -27.0509831248423,19.1757838848871" />
<polygon style="fill:#ffff80;"   points="-32.6237921249264,22.4513988289793 -27.0509831248423,25.7270137730715 -29.1796067500631,31.0270700866698 -34.7524157501472,27.7514551425776" />
<polygon style="fill:#8080ff;"   points="-32.6237921249264,33.0515114561758 -27.0509831248423,36.327126400268 -29.1796067500631,31.0270700866698 -34.7524157501472,27.7514551425776" />
<polygon style="fill:#8080ff;"   points="-32.6237921249264,-39.6027413443603 -27.0509831248423,-36.327126400268 -29.1796067500631,-41.6271827138663 -34.7524157501472,-44.9027976579586" />
<polygon style="fill:#8080ff;"   points="-32.6237921249264,39.6027413443603 -27.0509831248423,36.327126400268 -29.1796067500631,41.6271827138663 -34.7524157501472,44.9027976579586" />
<polygon style="fill:#ffff80;"   points="-34.7524157501472,-0 -32.6237921249264,-5.30005631359828 -25.7354213751998,-5.30005631359829 -27.8640450004206,-1.77635683940025e-15" />
<polygon style="fill:#ffff80;"   points="-34.7524157501472,0 -32.6237921249264,5.30005631359828 -25.7354213751998,5.30005631359829 -27.8640450004206,1.77635683940025e-15" />
<polygon style="fill:#8080ff;"   points="-27.0509831248423,-8.5756712576905 -20.1626123751157,-8.5756712576905 -25.7354213751998,-5.30005631359829 -32.6237921249264,-5.30005631359828" />
<polygon style="fill:#8080ff;"   points="-27.0509831248423,8.5756712576905 -32.6237921249264,5.30005631359828 -25.7354213751998,5.30005631359829 -20.1626123751157,8.5756712576905" />
<polygon style="fill:#8080ff;"   points="-27.0509831248423,-25.7270137730715 -32.6237921249264,-22.4513988289793 -25.7354213751998,-22.4513988289793 -20.1626123751157,-25.7270137730715" />
<polygon style="fill:#8080ff;"   points="-27.0509831248423,-19.1757838848871 -20.1626123751157,-19.1757838848871 -25.7354213751998,-22.4513988289793 -32.6237921249264,-22.4513988289793" />
<polygon style="fill:#8080ff;"   points="-27.0509831248423,19.1757838848871 -20.1626123751157,19.1757838848871 -25.7354213751998,22.4513988289793 -32.6237921249264,22.4513988289793" />
<polygon style="fill:#8080ff;"   points="-27.0509831248423,25.7270137730715 -32.6237921249264,22.4513988289793 -25.7354213751998,22.4513988289793 -20.1626123751157,25.7270137730715" />
<polygon style="fill:#ffff80;"   points="-20.1626123751157,-36.327126400268 -27.0509831248423,-36.327126400268 -29.1796067500631,-31.0270700866698 -22.2912360003365,-31.0270700866698" />
<polygon style="fill:#ffff80;"   points="-20.1626123751157,-25.7270137730715 -27.0509831248423,-25.7270137730715 -29.1796067500631,-31.0270700866698 -22.2912360003365,-31.0270700866698" />
<polygon style="fill:#ffff80;"   points="-20.1626123751157,-19.1757838848871 -22.2912360003365,-13.8757275712888 -29.1796067500631,-13.8757275712888 -27.0509831248423,-19.1757838848871" />
<polygon style="fill:#ffff80;"   points="-20.1626123751157,-8.5756712576905 -27.0509831248423,-8.5756712576905 -29.1796067500631,-13.8757275712888 -22.2912360003365,-13.8757275712888" />
<polygon style="fill:#ffff80;"   points="-20.1626123751157,8.5756712576905 -22.2912360003365,13.8757275712888 -29.1796067500631,13.8757275712888 -27.0509831248423,8.5756712576905" />
<polygon style="fill:#ffff80;"   points="-20.1626123751157,19.1757838848871 -22.2912360003365,13.8757275712888 -29.1796067500631,13.8757275712888 -27.0509831248423,19.1757838848871" />
<polygon style="fill:#ffff80;"   points="-20.1626123751157,25.7270137730715 -27.0509831248423,25.7270137730715 -29.1796067500631,31.0270700866698 -22.2912360003365,31.0270700866698" />
<polygon style="fill:#ffff80;"   points="-20.1626123751157,36.327126400268 -22.2912360003365,31.0270700866698 -29.1796067500631,31.0270700866698 -27.0509831248423,36.327126400268" />
<polygon style="fill:#ffff80;"   points="-20.1626123751157,-46.9272390274646 -22.2912360003365,-41.6271827138663 -29.1796067500631,-41.6271827138663 -27.0509831248423,-46.9272390274646" />
<polygon style="fill:#ffff80;"   points="-20.1626123751157,-36.327126400268 -27.0509831248423,-36.327126400268 -29.1796067500631,-41.6271827138663 -22.2912360003365,-41.6271827138663" />
<polygon style="fill:#ffff80;"   points="-20.1626123751157,36.327126400268 -27.0509831248423,36.327126400268 -29.1796067500631,41.6271827138663 -22.2912360003365,41.6271827138663" />
<polygon style="fill:#ffff80;"   points="-20.1626123751157,46.9272390274646 -22.2912360003365,41.6271827138663 -29.1796067500631,41.6271827138663 -27.0509831248423,46.9272390274646" />
<polygon style="fill:#8080ff;"   points="-22.2912360003365,-3.27561494409221 -27.8640450004206,-0 -25.7354213751998,-5.30005631359829 -20.1626123751157,-8.5756712576905" />
<polygon style="fill:#8080ff;"   points="-22.2912360003365,3.27561494409221 -20.1626123751157,8.5756712576905 -25.7354213751998,5.30005631359829 -27.8640450004206,1.77635683940025e-15" />
<polygon style="fill:#ffff80;"   points="-27.8640450004206,0 -22.2912360003365,3.27561494409221 -16.7184270002524,0 -22.2912360003365,-3.27561494409221" />
<polygon style="fill:#8080ff;"   points="-22.2912360003365,-41.6271827138663 -20.1626123751157,-36.327126400268 -18.0339887498948,-41.6271827138663 -20.1626123751157,-46.9272390274646" />
<polygon style="fill:#8080ff;"   points="-22.2912360003365,-31.0270700866698 -20.1626123751157,-36.327126400268 -18.0339887498948,-31.0270700866698 -20.1626123751157,-25.7270137730715" />
<polygon style="fill:#ffff80;"   points="-14.5898033750315,-22.4513988289793 -20.1626123751157,-25.7270137730715 -25.7354213751998,-22.4513988289793 -20.1626123751157,-19.1757838848871" />
<polygon style="fill:#8080ff;"   points="-22.2912360003365,-13.8757275712888 -20.1626123751157,-19.1757838848871 -18.0339887498948,-13.8757275712888 -20.1626123751157,-8.5756712576905" />
<polygon style="fill:#8080ff;"   points="-22.2912360003365,13.8757275712888 -20.1626123751157,8.5756712576905 -18.0339887498948,13.8757275712888 -20.1626123751157,19.1757838848871" />
<polygon style="fill:#ffff80;"   points="-14.5898033750315,22.4513988289793 -20.1626123751157,25.7270137730715 -25.7354213751998,22.4513988289793 -20.1626123751157,19.1757838848871" />
<polygon style="fill:#8080ff;"   points="-22.2912360003365,31.0270700866698 -20.1626123751157,25.7270137730715 -18.0339887498948,31.0270700866698 -20.1626123751157,36.327126400268" />
<polygon style="fill:#8080ff;"   points="-22.2912360003365,41.6271827138663 -20.1626123751157,36.327126400268 -18.0339887498948,41.6271827138663 -20.1626123751157,46.9272390274646" />
<polygon style="fill:#ffff80;"   points="-20.1626123751157,-8.5756712576905 -22.2912360003365,-3.27561494409221 -16.7184270002524,-0 -14.5898033750315,-5.30005631359828" />
<polygon style="fill:#ffff80;"   points="-20.1626123751157,8.5756712576905 -22.2912360003365,3.27561494409221 -16.7184270002524,0 -14.5898033750315,5.30005631359828" />
<polygon style="fill:#ffff80;"   points="-14.5898033750315,-50.2028539715568 -20.1626123751157,-46.9272390274646 -18.0339887498948,-41.6271827138663 -12.4611797498107,-44.9027976579585" />
<polygon style="fill:#8080ff;"   points="-14.5898033750315,-39.6027413443603 -20.1626123751157,-36.327126400268 -18.0339887498948,-41.6271827138663 -12.4611797498107,-44.9027976579585" />
<polygon style="fill:#8080ff;"   points="-14.5898033750315,-33.0515114561758 -12.4611797498107,-27.7514551425776 -18.0339887498948,-31.0270700866698 -20.1626123751157,-36.327126400268" />
<polygon style="fill:#ffff80;"   points="-14.5898033750315,-22.4513988289793 -12.4611797498107,-27.7514551425776 -18.0339887498948,-31.0270700866698 -20.1626123751157,-25.7270137730715" />
<polygon style="fill:#ffff80;"   points="-14.5898033750315,-22.4513988289793 -20.1626123751157,-19.1757838848871 -18.0339887498948,-13.8757275712888 -12.4611797498107,-17.151342515381" />
<polygon style="fill:#8080ff;"   points="-14.5898033750315,-11.8512862017827 -20.1626123751157,-8.5756712576905 -18.0339887498948,-13.8757275712888 -12.4611797498107,-17.151342515381" />
<polygon style="fill:#8080ff;"   points="-14.5898033750315,11.8512862017827 -20.1626123751157,8.5756712576905 -18.0339887498948,13.8757275712888 -12.4611797498107,17.151342515381" />
<polygon style="fill:#ffff80;"   points="-14.5898033750315,22.4513988289793 -20.1626123751157,19.1757838848871 -18.0339887498948,13.8757275712888 -12.4611797498107,17.151342515381" />
<polygon style="fill:#ffff80;"   points="-14.5898033750315,22.4513988289793 -20.1626123751157,25.7270137730715 -18.0339887498948,31.0270700866698 -12.4611797498107,27.7514551425776" />
<polygon style="fill:#8080ff;"   points="-14.5898033750315,33.0515114561758 -12.4611797498107,27.7514551425776 -18.0339887498948,31.0270700866698 -20.1626123751157,36.327126400268" />
<polygon style="fill:#8080ff;"   points="-14.5898033750315,39.6027413443603 -20.1626123751157,36.327126400268 -18.0339887498948,41.6271827138663 -12.4611797498107,44.9027976579585" />
<polygon style="fill:#ffff80;"   points="-14.5898033750315,50.2028539715568 -20.1626123751157,46.9272390274646 -18.0339887498948,41.6271827138663 -12.4611797498107,44.9027976579585" />
<polygon style="fill:#ffff80;"   points="-20.1626123751157,-36.327126400268 -14.5898033750315,-39.6027413443603 -9.01699437494742,-36.327126400268 -14.5898033750315,-33.0515114561758" />
<polygon style="fill:#ffff80;"   points="-20.1626123751157,36.327126400268 -14.5898033750315,33.0515114561758 -9.01699437494742,36.327126400268 -14.5898033750315,39.6027413443603" />
<polygon style="fill:#8080ff;"   points="-12.4611797498107,-0 -14.5898033750315,-5.30005631359829 -16.7184270002524,-0 -14.5898033750315,5.30005631359829" />
<polygon style="fill:#ffff80;"   points="-20.1626123751157,-8.5756712576905 -14.5898033750315,-5.30005631359829 -9.01699437494742,-8.57567125769049 -14.5898033750315,-11.8512862017827" />
<polygon style="fill:#ffff80;"   points="-20.1626123751157,8.5756712576905 -14.5898033750315,11.8512862017827 -9.01699437494742,8.57567125769049 -14.5898033750315,5.30005631359828" />
<polygon style="fill:#ffff80;"   points="-12.4611797498107,-44.9027976579585 -14.5898033750315,-39.6027413443603 -9.01699437494742,-36.327126400268 -6.8883707497266,-41.6271827138663" />
<polygon style="fill:#ffff80;"   points="-12.4611797498107,-27.7514551425776 -14.5898033750315,-33.0515114561758 -9.01699437494742,-36.327126400268 -6.8883707497266,-31.0270700866698" />
<polygon style="fill:#ffff80;"   points="-12.4611797498107,27.7514551425776 -6.8883707497266,31.0270700866698 -9.01699437494742,36.327126400268 -14.5898033750315,33.0515114561758" />
<polygon style="fill:#ffff80;"   points="-12.4611797498107,44.9027976579585 -14.5898033750315,39.6027413443603 -9.01699437494742,36.327126400268 -6.8883707497266,41.6271827138663" />
<polygon style="fill:#ffff80;"   points="-12.4611797498107,-17.151342515381 -14.5898033750315,-11.8512862017827 -9.01699437494742,-8.57567125769049 -6.8883707497266,-13.8757275712888" />
<polygon style="fill:#ffff80;"   points="-12.4611797498107,17.151342515381 -14.5898033750315,11.8512862017827 -9.01699437494742,8.57567125769049 -6.8883707497266,13.8757275712888" />
<polygon style="fill:#ffff80;"   points="-14.5898033750315,-50.2028539715568 -7.70143262530494,-50.2028539715568 -5.57280900008412,-44.9027976579585 -12.4611797498107,-44.9027976579585" />
<polygon style="fill:#ffff80;"   points="-14.5898033750315,50.2028539715568 -12.4611797498107,44.9027976579585 -5.57280900008412,44.9027976579585 -7.70143262530494,50.2028539715568" />
<polygon style="fill:#ffff80;"   points="-14.5898033750315,-22.4513988289793 -7.70143262530494,-22.4513988289793 -5.57280900008412,-27.7514551425776 -12.4611797498107,-27.7514551425776" />
<polygon style="fill:#ffff80;"   points="-14.5898033750315,-22.4513988289793 -12.4611797498107,-17.151342515381 -5.57280900008412,-17.151342515381 -7.70143262530494,-22.4513988289793" />
<polygon style="fill:#ffff80;"   points="-14.5898033750315,22.4513988289793 -12.4611797498107,17.151342515381 -5.57280900008412,17.151342515381 -7.70143262530494,22.4513988289793" />
<polygon style="fill:#ffff80;"   points="-14.5898033750315,22.4513988289793 -12.4611797498107,27.7514551425776 -5.57280900008412,27.7514551425776 -7.70143262530494,22.4513988289793" />
<polygon style="fill:#ffff80;"   points="-14.5898033750315,-5.30005631359829 -12.4611797498107,-0 -5.57280900008411,-0 -7.70143262530494,-5.30005631359829" />
<polygon style="fill:#ffff80;"   points="-14.5898033750315,5.30005631359829 -12.4611797498107,0 -5.57280900008411,0 -7.70143262530494,5.30005631359829" />
<polygon style="fill:#8080ff;"   points="-7.70143262530494,-50.2028539715568 -2.12862362522082,-53.478468915649 -9.01699437494742,-53.478468915649 -14.5898033750315,-50.2028539715568" />
<polygon style="fill:#8080ff;"   points="-7.70143262530494,50.2028539715568 -14.5898033750315,50.2028539715568 -9.01699437494742,53.478468915649 -2.12862362522082,53.478468915649" />
<polygon style="fill:#8080ff;"   points="-7.70143262530493,-5.30005631359828 -2.12862362522081,-8.5756712576905 -9.01699437494742,-8.57567125769049 -14.5898033750315,-5.30005631359828" />
<polygon style="fill:#8080ff;"   points="-7.70143262530493,5.30005631359828 -14.5898033750315,5.30005631359829 -9.01699437494742,8.57567125769049 -2.12862362522081,8.57567125769049" />
<polygon style="fill:#8080ff;"   points="-6.8883707497266,-41.6271827138663 2.66453525910038e-15,-41.6271827138663 -5.57280900008412,-44.9027976579585 -12.4611797498107,-44.9027976579585" />
<polygon style="fill:#8080ff;"   points="-6.8883707497266,41.6271827138663 -12.4611797498107,44.9027976579585 -5.57280900008412,44.9027976579585 0,41.6271827138663" />
<polygon style="fill:#8080ff;"   points="-6.8883707497266,-31.0270700866698 2.66453525910038e-15,-31.0270700866698 -5.57280900008412,-27.7514551425776 -12.4611797498107,-27.7514551425776" />
<polygon style="fill:#8080ff;"   points="-6.8883707497266,31.0270700866698 -12.4611797498107,27.7514551425776 -5.57280900008412,27.7514551425776 3.5527136788005e-15,31.0270700866698" />
<polygon style="fill:#8080ff;"   points="-6.8883707497266,-13.8757275712888 -12.4611797498107,-17.151342515381 -5.57280900008412,-17.151342515381 3.5527136788005e-15,-13.8757275712888" />
<polygon style="fill:#8080ff;"   points="-6.8883707497266,13.8757275712888 -12.4611797498107,17.151342515381 -5.57280900008412,17.151342515381 3.5527136788005e-15,13.8757275712888" />
<polygon style="fill:#ffff80;"   points="0,-58.7785252292473 -2.12862362522082,-53.478468915649 -9.01699437494742,-53.478468915649 -6.8883707497266,-58.7785252292473" />
<polygon style="fill:#ffff80;"   points="0,58.7785252292473 -2.12862362522082,53.478468915649 -9.01699437494742,53.478468915649 -6.8883707497266,58.7785252292473" />
<polygon style="fill:#ffff80;"   points="2.66453525910038e-15,-41.6271827138663 -6.8883707497266,-41.6271827138663 -9.01699437494742,-36.327126400268 -2.12862362522082,-36.3271264002681" />
<polygon style="fill:#ffff80;"   points="2.66453525910038e-15,-31.0270700866698 -6.8883707497266,-31.0270700866698 -9.01699437494742,-36.327126400268 -2.12862362522082,-36.327126400268" />
<polygon style="fill:#ffff80;"   points="2.66453525910038e-15,31.0270700866698 -2.12862362522082,36.327126400268 -9.01699437494742,36.327126400268 -6.8883707497266,31.0270700866698" />
<polygon style="fill:#ffff80;"   points="2.66453525910038e-15,41.6271827138663 -2.12862362522082,36.327126400268 -9.01699437494742,36.327126400268 -6.8883707497266,41.6271827138663" />
<polygon style="fill:#ffff80;"   points="3.5527136788005e-15,-13.8757275712888 -6.8883707497266,-13.8757275712888 -9.01699437494742,-8.57567125769049 -2.12862362522081,-8.5756712576905" />
<polygon style="fill:#ffff80;"   points="3.5527136788005e-15,13.8757275712888 -6.8883707497266,13.8757275712888 -9.01699437494742,8.57567125769049 -2.12862362522081,8.5756712576905" />
<polygon style="fill:#ffff80;"   points="-2.12862362522082,-53.478468915649 1.77635683940025e-15,-48.1784126020507 -5.57280900008412,-44.9027976579585 -7.70143262530494,-50.2028539715568" />
<polygon style="fill:#ffff80;"   points="-2.12862362522082,53.478468915649 1.77635683940025e-15,48.1784126020507 -5.57280900008412,44.9027976579585 -7.70143262530494,50.2028539715568" />
<polygon style="fill:#8080ff;"   points="-2.12862362522081,-25.7270137730715 2.66453525910038e-15,-31.0270700866698 -5.57280900008412,-27.7514551425776 -7.70143262530493,-22.4513988289793" />
<polygon style="fill:#8080ff;"   points="-2.12862362522081,-19.1757838848871 -7.70143262530494,-22.4513988289793 -5.57280900008412,-17.151342515381 4.44089209850063e-15,-13.8757275712888" />
<polygon style="fill:#8080ff;"   points="-2.12862362522081,19.1757838848871 -7.70143262530494,22.4513988289793 -5.57280900008412,17.151342515381 4.44089209850063e-15,13.8757275712888" />
<polygon style="fill:#8080ff;"   points="-2.12862362522081,25.7270137730715 -7.70143262530494,22.4513988289793 -5.57280900008412,27.7514551425776 4.44089209850063e-15,31.0270700866698" />
<polygon style="fill:#ffff80;"   points="-2.12862362522081,-8.5756712576905 7.105427357601e-15,-3.27561494409221 -5.57280900008411,-0 -7.70143262530493,-5.30005631359828" />
<polygon style="fill:#ffff80;"   points="-2.12862362522081,8.5756712576905 -7.70143262530493,5.30005631359828 -5.57280900008411,0 7.105427357601e-15,3.27561494409221" />
<polygon style="fill:#ffff80;"   points="-7.70143262530494,-22.4513988289793 -2.12862362522081,-19.1757838848871 3.44418537486331,-22.4513988289793 -2.12862362522081,-25.7270137730715" />
<polygon style="fill:#ffff80;"   points="-7.70143262530494,22.4513988289793 -2.12862362522081,19.1757838848871 3.44418537486331,22.4513988289793 -2.12862362522081,25.7270137730715" />
<polygon style="fill:#ffff80;"   points="5.57280900008412,-44.9027976579585 1.77635683940025e-15,-48.1784126020507 -5.57280900008412,-44.9027976579585 1.77635683940025e-15,-41.6271827138663" />
<polygon style="fill:#ffff80;"   points="5.57280900008412,44.9027976579585 2.66453525910038e-15,41.6271827138663 -5.57280900008412,44.9027976579585 8.88178419700125e-16,48.1784126020507" />
<polygon style="fill:#8080ff;"   points="-2.12862362522082,-36.327126400268 2.66453525910038e-15,-31.0270700866698 2.12862362522082,-36.327126400268 2.66453525910038e-15,-41.6271827138663" />
<polygon style="fill:#8080ff;"   points="-2.12862362522082,36.327126400268 2.66453525910038e-15,31.0270700866698 2.12862362522082,36.327126400268 2.66453525910038e-15,41.6271827138663" />
<polygon style="fill:#ffff80;"   points="5.57280900008413,-0 7.105427357601e-15,-3.27561494409221 -5.57280900008411,-0 7.105427357601e-15,3.27561494409221" />
<polygon style="fill:#ffff80;"   points="0,-58.7785252292473 5.57280900008412,-55.5029102851551 3.4441853748633,-50.2028539715568 -2.12862362522082,-53.478468915649" />
<polygon style="fill:#ffff80;"   points="0,58.7785252292473 5.57280900008412,55.5029102851551 3.4441853748633,50.2028539715568 -2.12862362522082,53.478468915649" />
<polygon style="fill:#8080ff;"   points="1.77635683940025e-15,-48.1784126020507 5.57280900008412,-44.9027976579585 3.4441853748633,-50.2028539715568 -2.12862362522082,-53.478468915649" />
<polygon style="fill:#8080ff;"   points="1.77635683940025e-15,48.1784126020507 -2.12862362522082,53.478468915649 3.4441853748633,50.2028539715568 5.57280900008412,44.9027976579585" />
<polygon style="fill:#ffff80;"   points="3.5527136788005e-15,-13.8757275712888 -2.12862362522081,-8.5756712576905 3.44418537486331,-5.30005631359828 5.57280900008412,-10.6001126271966" />
<polygon style="fill:#ffff80;"   points="3.5527136788005e-15,13.8757275712888 -2.12862362522081,8.5756712576905 3.44418537486331,5.30005631359828 5.57280900008412,10.6001126271966" />
<polygon style="fill:#ffff80;"   points="2.66453525910038e-15,-31.0270700866698 -2.12862362522081,-25.7270137730715 3.44418537486331,-22.4513988289793 5.57280900008413,-27.7514551425776" />
<polygon style="fill:#ffff80;"   points="2.66453525910038e-15,31.0270700866698 5.57280900008413,27.7514551425776 3.44418537486331,22.4513988289793 -2.12862362522081,25.7270137730715" />
<polygon style="fill:#ffff80;"   points="3.5527136788005e-15,-13.8757275712888 -2.12862362522081,-19.1757838848871 3.44418537486331,-22.4513988289793 5.57280900008413,-17.151342515381" />
<polygon style="fill:#ffff80;"   points="3.5527136788005e-15,13.8757275712888 5.57280900008413,17.151342515381 3.44418537486331,22.4513988289793 -2.12862362522081,19.1757838848871" />
<polygon style="fill:#8080ff;"   points="7.105427357601e-15,-3.27561494409221 5.57280900008413,-0 3.44418537486331,-5.30005631359828 -2.12862362522081,-8.57567125769049" />
<polygon style="fill:#8080ff;"   points="7.105427357601e-15,3.27561494409221 -2.12862362522081,8.5756712576905 3.44418537486331,5.30005631359828 5.57280900008413,-1.77635683940025e-15" />
<polygon style="fill:#ffff80;"   points="5.57280900008412,-44.9027976579585 2.66453525910038e-15,-41.6271827138663 2.12862362522082,-36.327126400268 7.70143262530494,-39.6027413443603" />
<polygon style="fill:#8080ff;"   points="5.57280900008413,-34.302685030762 7.70143262530494,-39.6027413443603 2.12862362522082,-36.327126400268 1.77635683940025e-15,-31.0270700866698" />
<polygon style="fill:#8080ff;"   points="5.57280900008413,34.302685030762 7.70143262530494,39.6027413443603 2.12862362522082,36.327126400268 1.77635683940025e-15,31.0270700866698" />
<polygon style="fill:#ffff80;"   points="5.57280900008412,44.9027976579585 2.66453525910038e-15,41.6271827138663 2.12862362522082,36.327126400268 7.70143262530494,39.6027413443603" />
<polygon style="fill:#8080ff;"   points="7.70143262530494,-50.2028539715568 5.57280900008412,-44.9027976579585 3.4441853748633,-50.2028539715568 5.57280900008412,-55.5029102851551" />
<polygon style="fill:#8080ff;"   points="7.70143262530494,50.2028539715568 5.57280900008412,44.9027976579585 3.4441853748633,50.2028539715568 5.57280900008412,55.5029102851551" />
<polygon style="fill:#ffff80;"   points="2.66453525910038e-15,-31.0270700866698 5.57280900008413,-27.7514551425776 11.1456180001683,-31.0270700866698 5.57280900008413,-34.302685030762" />
<polygon style="fill:#ffff80;"   points="3.5527136788005e-15,-13.8757275712888 5.57280900008413,-10.6001126271966 11.1456180001683,-13.8757275712888 5.57280900008413,-17.151342515381" />
<polygon style="fill:#8080ff;"   points="7.70143262530495,-5.30005631359828 5.57280900008413,-10.6001126271966 3.44418537486331,-5.30005631359828 5.57280900008413,1.77635683940025e-15" />
<polygon style="fill:#8080ff;"   points="7.70143262530495,5.30005631359828 5.57280900008413,0 3.44418537486331,5.30005631359828 5.57280900008413,10.6001126271966" />
<polygon style="fill:#ffff80;"   points="3.5527136788005e-15,13.8757275712888 5.57280900008413,17.151342515381 11.1456180001683,13.8757275712888 5.57280900008413,10.6001126271966" />
<polygon style="fill:#ffff80;"   points="2.66453525910038e-15,31.0270700866698 5.57280900008413,27.7514551425776 11.1456180001683,31.0270700866698 5.57280900008413,34.302685030762" />
<polygon style="fill:#8080ff;"   points="7.70143262530495,-22.4513988289793 5.57280900008413,-17.151342515381 3.44418537486331,-22.4513988289793 5.57280900008413,-27.7514551425775" />
<polygon style="fill:#8080ff;"   points="7.70143262530495,22.4513988289793 5.57280900008413,17.151342515381 3.44418537486331,22.4513988289793 5.57280900008413,27.7514551425775" />
<polygon style="fill:#ffff80;"   points="7.70143262530494,-39.6027413443603 13.2742416253891,-36.327126400268 11.1456180001683,-31.0270700866698 5.57280900008413,-34.302685030762" />
<polygon style="fill:#ffff80;"   points="7.70143262530494,39.6027413443603 13.2742416253891,36.327126400268 11.1456180001683,31.0270700866698 5.57280900008413,34.302685030762" />
<polygon style="fill:#ffff80;"   points="5.57280900008412,-55.5029102851551 7.70143262530494,-50.2028539715568 14.5898033750315,-50.2028539715568 12.4611797498107,-55.5029102851551" />
<polygon style="fill:#ffff80;"   points="5.57280900008412,-44.9027976579585 7.70143262530494,-50.2028539715568 14.5898033750315,-50.2028539715568 12.4611797498107,-44.9027976579585" />
<polygon style="fill:#ffff80;"   points="5.57280900008412,44.9027976579585 12.4611797498107,44.9027976579585 14.5898033750315,50.2028539715568 7.70143262530494,50.2028539715568" />
<polygon style="fill:#ffff80;"   points="5.57280900008412,55.5029102851551 7.70143262530494,50.2028539715568 14.5898033750315,50.2028539715568 12.4611797498107,55.5029102851551" />
<polygon style="fill:#ffff80;"   points="5.57280900008412,-44.9027976579585 7.70143262530494,-39.6027413443603 14.5898033750316,-39.6027413443603 12.4611797498107,-44.9027976579586" />
<polygon style="fill:#ffff80;"   points="5.57280900008412,44.9027976579585 7.70143262530494,39.6027413443603 14.5898033750316,39.6027413443603 12.4611797498107,44.9027976579586" />
<polygon style="fill:#ffff80;"   points="5.57280900008413,-27.7514551425776 12.4611797498107,-27.7514551425776 14.5898033750316,-22.4513988289793 7.70143262530494,-22.4513988289793" />
<polygon style="fill:#ffff80;"   points="5.57280900008413,-17.151342515381 7.70143262530495,-22.4513988289793 14.5898033750316,-22.4513988289793 12.4611797498107,-17.151342515381" />
<polygon style="fill:#ffff80;"   points="5.57280900008413,17.151342515381 12.4611797498107,17.151342515381 14.5898033750316,22.4513988289793 7.70143262530494,22.4513988289793" />
<polygon style="fill:#ffff80;"   points="5.57280900008413,27.7514551425776 7.70143262530495,22.4513988289793 14.5898033750316,22.4513988289793 12.4611797498107,27.7514551425776" />
<polygon style="fill:#ffff80;"   points="5.57280900008413,-10.6001126271966 12.4611797498107,-10.6001126271966 14.5898033750316,-5.30005631359828 7.70143262530495,-5.30005631359828" />
<polygon style="fill:#ffff80;"   points="5.57280900008413,10.6001126271966 12.4611797498107,10.6001126271966 14.5898033750316,5.30005631359828 7.70143262530495,5.30005631359828" />
<polygon style="fill:#ffff80;"   points="5.57280900008413,-0 12.4611797498107,-0 14.5898033750316,-5.30005631359828 7.70143262530495,-5.30005631359828" />
<polygon style="fill:#ffff80;"   points="5.57280900008413,0 12.4611797498107,0 14.5898033750316,5.30005631359828 7.70143262530495,5.30005631359828" />
<polygon style="fill:#8080ff;"   points="12.4611797498107,-27.7514551425776 18.0339887498949,-31.0270700866698 11.1456180001683,-31.0270700866698 5.57280900008413,-27.7514551425775" />
<polygon style="fill:#8080ff;"   points="12.4611797498107,-17.151342515381 5.57280900008413,-17.151342515381 11.1456180001683,-13.8757275712888 18.0339887498949,-13.8757275712888" />
<polygon style="fill:#8080ff;"   points="12.4611797498107,-10.6001126271966 18.0339887498949,-13.8757275712888 11.1456180001683,-13.8757275712888 5.57280900008413,-10.6001126271966" />
<polygon style="fill:#8080ff;"   points="12.4611797498107,10.6001126271966 5.57280900008413,10.6001126271966 11.1456180001683,13.8757275712888 18.0339887498949,13.8757275712888" />
<polygon style="fill:#8080ff;"   points="12.4611797498107,17.151342515381 18.0339887498949,13.8757275712888 11.1456180001683,13.8757275712888 5.57280900008413,17.151342515381" />
<polygon style="fill:#8080ff;"   points="12.4611797498107,27.7514551425776 18.0339887498949,31.0270700866698 11.1456180001683,31.0270700866698 5.57280900008413,27.7514551425775" />
<polygon style="fill:#8080ff;"   points="13.2742416253891,-36.327126400268 7.70143262530494,-39.6027413443603 14.5898033750316,-39.6027413443603 20.1626123751157,-36.327126400268" />
<polygon style="fill:#8080ff;"   points="13.2742416253891,36.327126400268 20.1626123751157,36.327126400268 14.5898033750316,39.6027413443603 7.70143262530495,39.6027413443603" />
<polygon style="fill:#ffff80;"   points="20.1626123751157,-36.327126400268 18.0339887498949,-31.0270700866698 11.1456180001683,-31.0270700866698 13.2742416253891,-36.327126400268" />
<polygon style="fill:#ffff80;"   points="20.1626123751157,36.327126400268 18.0339887498949,31.0270700866698 11.1456180001683,31.0270700866698 13.2742416253891,36.327126400268" />
<polygon style="fill:#8080ff;"   points="18.0339887498948,-48.1784126020507 12.4611797498107,-44.9027976579585 14.5898033750315,-50.2028539715568 20.1626123751157,-53.478468915649" />
<polygon style="fill:#8080ff;"   points="18.0339887498948,48.1784126020507 12.4611797498107,44.9027976579585 14.5898033750315,50.2028539715568 20.1626123751157,53.478468915649" />
<polygon style="fill:#8080ff;"   points="18.0339887498949,-41.6271827138663 20.1626123751157,-36.327126400268 14.5898033750316,-39.6027413443603 12.4611797498107,-44.9027976579586" />
<polygon style="fill:#8080ff;"   points="18.0339887498949,41.6271827138663 20.1626123751157,36.327126400268 14.5898033750316,39.6027413443603 12.4611797498107,44.9027976579586" />
<polygon style="fill:#ffff80;"   points="18.0339887498949,-31.0270700866698 20.1626123751157,-25.7270137730715 14.5898033750316,-22.4513988289793 12.4611797498107,-27.7514551425776" />
<polygon style="fill:#ffff80;"   points="18.0339887498949,-13.8757275712888 12.4611797498107,-17.151342515381 14.5898033750316,-22.4513988289793 20.1626123751157,-19.1757838848871" />
<polygon style="fill:#ffff80;"   points="18.0339887498949,-13.8757275712888 12.4611797498107,-10.6001126271966 14.5898033750316,-5.30005631359828 20.1626123751157,-8.57567125769049" />
<polygon style="fill:#ffff80;"   points="18.0339887498949,13.8757275712888 12.4611797498107,10.6001126271966 14.5898033750316,5.30005631359828 20.1626123751157,8.57567125769049" />
<polygon style="fill:#ffff80;"   points="18.0339887498949,13.8757275712888 12.4611797498107,17.151342515381 14.5898033750316,22.4513988289793 20.1626123751157,19.1757838848871" />
<polygon style="fill:#ffff80;"   points="18.0339887498949,31.0270700866698 20.1626123751157,25.7270137730715 14.5898033750316,22.4513988289793 12.4611797498107,27.7514551425776" />
<polygon style="fill:#8080ff;"   points="18.0339887498949,-3.27561494409221 20.1626123751157,-8.57567125769049 14.5898033750316,-5.30005631359828 12.4611797498107,-1.77635683940025e-15" />
<polygon style="fill:#8080ff;"   points="18.0339887498949,3.27561494409221 20.1626123751157,8.57567125769049 14.5898033750316,5.30005631359828 12.4611797498107,1.77635683940025e-15" />
<polygon style="fill:#ffff80;"   points="12.4611797498107,-44.9027976579585 18.0339887498948,-48.1784126020507 23.606797749979,-44.9027976579585 18.0339887498948,-41.6271827138663" />
<polygon style="fill:#ffff80;"   points="12.4611797498107,44.9027976579585 18.0339887498949,41.6271827138663 23.606797749979,44.9027976579585 18.0339887498948,48.1784126020508" />
<polygon style="fill:#ffff80;"   points="12.4611797498107,0 18.0339887498949,3.27561494409221 23.606797749979,0 18.0339887498949,-3.27561494409221" />
<polygon style="fill:#ffff80;"   points="25.7354213751998,-22.4513988289793 20.1626123751157,-19.1757838848871 14.5898033750316,-22.4513988289793 20.1626123751157,-25.7270137730715" />
<polygon style="fill:#ffff80;"   points="25.7354213751998,22.4513988289793 20.1626123751157,25.7270137730715 14.5898033750316,22.4513988289793 20.1626123751157,19.1757838848871" />
<polygon style="fill:#ffff80;"   points="20.1626123751157,-36.327126400268 25.7354213751998,-39.6027413443603 23.606797749979,-44.9027976579585 18.0339887498948,-41.6271827138663" />
<polygon style="fill:#ffff80;"   points="20.1626123751157,36.327126400268 25.7354213751998,39.6027413443603 23.606797749979,44.9027976579585 18.0339887498948,41.6271827138663" />
<polygon style="fill:#ffff80;"   points="20.1626123751157,-36.327126400268 18.0339887498949,-31.0270700866698 23.606797749979,-27.7514551425775 25.7354213751998,-33.0515114561758" />
<polygon style="fill:#8080ff;"   points="20.1626123751157,-25.7270137730715 18.0339887498949,-31.0270700866698 23.606797749979,-27.7514551425775 25.7354213751998,-22.4513988289793" />
<polygon style="fill:#8080ff;"   points="20.1626123751157,-19.1757838848871 25.7354213751998,-22.4513988289793 23.606797749979,-17.151342515381 18.0339887498948,-13.8757275712888" />
<polygon style="fill:#8080ff;"   points="20.1626123751157,19.1757838848871 25.7354213751998,22.4513988289793 23.606797749979,17.151342515381 18.0339887498948,13.8757275712888" />
<polygon style="fill:#8080ff;"   points="20.1626123751157,25.7270137730715 18.0339887498949,31.0270700866698 23.606797749979,27.7514551425775 25.7354213751998,22.4513988289793" />
<polygon style="fill:#ffff80;"   points="20.1626123751157,36.327126400268 25.7354213751998,33.0515114561758 23.606797749979,27.7514551425775 18.0339887498949,31.0270700866698" />
<polygon style="fill:#ffff80;"   points="20.1626123751157,-8.57567125769049 18.0339887498949,-3.27561494409221 23.606797749979,-0 25.7354213751998,-5.30005631359828" />
<polygon style="fill:#ffff80;"   points="20.1626123751157,8.57567125769049 18.0339887498949,3.27561494409221 23.606797749979,0 25.7354213751998,5.30005631359828" />
<polygon style="fill:#ffff80;"   points="18.0339887498949,-13.8757275712888 24.9223594996215,-13.8757275712888 27.0509831248423,-8.57567125769049 20.1626123751157,-8.57567125769049" />
<polygon style="fill:#ffff80;"   points="18.0339887498949,13.8757275712888 24.9223594996215,13.8757275712888 27.0509831248423,8.57567125769049 20.1626123751157,8.57567125769049" />
<polygon style="fill:#8080ff;"   points="24.9223594996215,-13.8757275712888 30.4951684997056,-17.151342515381 23.606797749979,-17.151342515381 18.0339887498949,-13.8757275712888" />
<polygon style="fill:#8080ff;"   points="24.9223594996215,13.8757275712888 18.0339887498949,13.8757275712888 23.606797749979,17.151342515381 30.4951684997056,17.151342515381" />
<polygon style="fill:#8080ff;"   points="25.7354213751998,-39.6027413443603 20.1626123751157,-36.327126400268 27.0509831248423,-36.327126400268 32.6237921249264,-39.6027413443603" />
<polygon style="fill:#8080ff;"   points="25.7354213751998,39.6027413443603 32.6237921249264,39.6027413443603 27.0509831248423,36.327126400268 20.1626123751157,36.327126400268" />
<polygon style="fill:#8080ff;"   points="25.7354213751998,-33.0515114561758 32.6237921249264,-33.0515114561758 27.0509831248423,-36.327126400268 20.1626123751157,-36.327126400268" />
<polygon style="fill:#8080ff;"   points="25.7354213751998,33.0515114561758 20.1626123751157,36.327126400268 27.0509831248423,36.327126400268 32.6237921249264,33.0515114561758" />
<polygon style="fill:#8080ff;"   points="25.7354213751998,-5.30005631359828 32.6237921249264,-5.30005631359828 27.0509831248423,-8.57567125769049 20.1626123751157,-8.57567125769049" />
<polygon style="fill:#8080ff;"   points="25.7354213751998,5.30005631359828 20.1626123751157,8.57567125769049 27.0509831248423,8.57567125769049 32.6237921249264,5.30005631359828" />
<polygon style="fill:#ffff80;"   points="32.6237921249264,-39.6027413443603 25.7354213751998,-39.6027413443603 23.606797749979,-44.9027976579585 30.4951684997056,-44.9027976579586" />
<polygon style="fill:#ffff80;"   points="32.6237921249264,39.6027413443603 25.7354213751998,39.6027413443603 23.606797749979,44.9027976579585 30.4951684997056,44.9027976579586" />
<polygon style="fill:#ffff80;"   points="32.6237921249264,-33.0515114561758 25.7354213751998,-33.0515114561758 23.606797749979,-27.7514551425775 30.4951684997056,-27.7514551425775" />
<polygon style="fill:#ffff80;"   points="32.6237921249264,-22.4513988289793 25.7354213751998,-22.4513988289793 23.606797749979,-27.7514551425775 30.4951684997056,-27.7514551425775" />
<polygon style="fill:#ffff80;"   points="32.6237921249264,-22.4513988289793 30.4951684997056,-17.151342515381 23.606797749979,-17.151342515381 25.7354213751998,-22.4513988289793" />
<polygon style="fill:#ffff80;"   points="32.6237921249264,22.4513988289793 30.4951684997056,17.151342515381 23.606797749979,17.151342515381 25.7354213751998,22.4513988289793" />
<polygon style="fill:#ffff80;"   points="32.6237921249264,22.4513988289793 30.4951684997056,27.7514551425776 23.606797749979,27.7514551425775 25.7354213751998,22.4513988289793" />
<polygon style="fill:#ffff80;"   points="32.6237921249264,33.0515114561758 30.4951684997056,27.7514551425776 23.606797749979,27.7514551425775 25.7354213751998,33.0515114561758" />
<polygon style="fill:#ffff80;"   points="32.6237921249264,-5.30005631359828 25.7354213751998,-5.30005631359828 23.606797749979,-0 30.4951684997056,0" />
<polygon style="fill:#ffff80;"   points="32.6237921249264,5.30005631359828 25.7354213751998,5.30005631359828 23.606797749979,0 30.4951684997056,0" />
<polygon style="fill:#ffff80;"   points="30.4951684997056,-17.151342515381 24.9223594996215,-13.8757275712888 27.0509831248423,-8.57567125769049 32.6237921249264,-11.8512862017827" />
<polygon style="fill:#ffff80;"   points="30.4951684997056,17.151342515381 24.9223594996215,13.8757275712888 27.0509831248423,8.57567125769049 32.6237921249264,11.8512862017827" />
<polygon style="fill:#ffff80;"   points="38.1966011250105,-36.327126400268 32.6237921249264,-39.6027413443603 27.0509831248423,-36.327126400268 32.6237921249264,-33.0515114561758" />
<polygon style="fill:#ffff80;"   points="38.1966011250105,36.327126400268 32.6237921249264,39.6027413443603 27.0509831248423,36.327126400268 32.6237921249264,33.0515114561758" />
<polygon style="fill:#8080ff;"   points="30.4951684997056,-27.7514551425776 32.6237921249264,-22.4513988289793 34.7524157501472,-27.7514551425776 32.6237921249264,-33.0515114561758" />
<polygon style="fill:#8080ff;"   points="30.4951684997056,27.7514551425776 32.6237921249264,22.4513988289793 34.7524157501472,27.7514551425776 32.6237921249264,33.0515114561758" />
<polygon style="fill:#ffff80;"   points="38.1966011250105,-8.57567125769049 32.6237921249264,-11.8512862017827 27.0509831248423,-8.57567125769049 32.6237921249264,-5.30005631359828" />
<polygon style="fill:#8080ff;"   points="30.4951684997056,0 32.6237921249264,5.30005631359828 34.7524157501472,0 32.6237921249264,-5.30005631359828" />
<polygon style="fill:#ffff80;"   points="38.1966011250105,8.57567125769049 32.6237921249264,11.8512862017827 27.0509831248423,8.57567125769049 32.6237921249264,5.30005631359828" />
<polygon style="fill:#ffff80;"   points="32.6237921249264,-22.4513988289793 30.4951684997056,-17.151342515381 36.0679774997897,-13.8757275712888 38.1966011250105,-19.1757838848871" />
<polygon style="fill:#8080ff;"   points="32.6237921249264,-11.8512862017827 30.4951684997056,-17.151342515381 36.0679774997897,-13.8757275712888 38.1966011250105,-8.57567125769049" />
<polygon style="fill:#8080ff;"   points="32.6237921249264,11.8512862017827 38.1966011250105,8.57567125769049 36.0679774997897,13.8757275712888 30.4951684997056,17.151342515381" />
<polygon style="fill:#ffff80;"   points="32.6237921249264,22.4513988289793 30.4951684997056,17.151342515381 36.0679774997897,13.8757275712888 38.1966011250105,19.1757838848871" />
<polygon style="fill:#ffff80;"   points="38.1966011250105,-36.327126400268 32.6237921249264,-33.0515114561758 34.7524157501472,-27.7514551425776 40.3252247502313,-31.0270700866698" />
<polygon style="fill:#8080ff;"   points="38.1966011250105,-25.7270137730715 40.3252247502313,-31.0270700866698 34.7524157501472,-27.7514551425776 32.6237921249264,-22.4513988289793" />
<polygon style="fill:#8080ff;"   points="38.1966011250105,25.7270137730715 32.6237921249264,22.4513988289793 34.7524157501472,27.7514551425776 40.3252247502313,31.0270700866698" />
<polygon style="fill:#ffff80;"   points="38.1966011250105,36.327126400268 32.6237921249264,33.0515114561758 34.7524157501472,27.7514551425776 40.3252247502313,31.0270700866698" />
<polygon style="fill:#ffff80;"   points="38.1966011250105,-8.57567125769049 32.6237921249264,-5.30005631359828 34.7524157501472,-0 40.3252247502313,-3.27561494409221" />
<polygon style="fill:#ffff80;"   points="38.1966011250105,8.57567125769049 32.6237921249264,5.30005631359828 34.7524157501472,0 40.3252247502313,3.27561494409221" />
<polygon style="fill:#ffff80;"   points="32.6237921249264,-22.4513988289793 38.1966011250105,-19.1757838848871 43.7694101250946,-22.4513988289793 38.1966011250105,-25.7270137730715" />
<polygon style="fill:#ffff80;"   points="32.6237921249264,22.4513988289793 38.1966011250105,25.7270137730715 43.7694101250946,22.4513988289793 38.1966011250105,19.1757838848871" />
<polygon style="fill:#8080ff;"   points="40.3252247502313,-13.8757275712888 38.1966011250105,-8.57567125769049 36.0679774997897,-13.8757275712888 38.1966011250105,-19.1757838848871" />
<polygon style="fill:#8080ff;"   points="40.3252247502313,13.8757275712888 38.1966011250105,8.57567125769049 36.0679774997897,13.8757275712888 38.1966011250105,19.1757838848871" />
<polygon style="fill:#ffff80;"   points="45.8980337503155,0 40.3252247502313,3.27561494409221 34.7524157501472,0 40.3252247502313,-3.27561494409221" />
<polygon style="fill:#ffff80;"   points="40.3252247502313,-31.0270700866698 45.8980337503154,-27.7514551425776 43.7694101250946,-22.4513988289793 38.1966011250105,-25.7270137730715" />
<polygon style="fill:#ffff80;"   points="40.3252247502313,31.0270700866698 45.8980337503154,27.7514551425776 43.7694101250946,22.4513988289793 38.1966011250105,25.7270137730715" />
<polygon style="fill:#8080ff;"   points="40.3252247502313,-3.27561494409221 38.1966011250105,-8.57567125769049 43.7694101250946,-5.30005631359828 45.8980337503155,0" />
<polygon style="fill:#8080ff;"   points="40.3252247502313,3.27561494409221 38.1966011250105,8.57567125769049 43.7694101250946,5.30005631359828 45.8980337503155,0" />
<polygon style="fill:#ffff80;"   points="38.1966011250105,-36.327126400268 40.3252247502313,-31.0270700866698 47.2135954999579,-31.0270700866698 45.0849718747371,-36.327126400268" />
<polygon style="fill:#ffff80;"   points="38.1966011250105,36.327126400268 40.3252247502313,31.0270700866698 47.2135954999579,31.0270700866698 45.0849718747371,36.327126400268" />
<polygon style="fill:#ffff80;"   points="38.1966011250105,-19.1757838848871 40.3252247502313,-13.8757275712888 47.2135954999579,-13.8757275712888 45.0849718747371,-19.1757838848871" />
<polygon style="fill:#ffff80;"   points="38.1966011250105,19.1757838848871 40.3252247502313,13.8757275712888 47.2135954999579,13.8757275712888 45.0849718747371,19.1757838848871" />
<polygon style="fill:#ffff80;"   points="38.1966011250105,-8.57567125769049 40.3252247502313,-13.8757275712888 47.2135954999579,-13.8757275712888 45.0849718747371,-8.57567125769049" />
<polygon style="fill:#ffff80;"   points="38.1966011250105,8.57567125769049 45.0849718747371,8.57567125769049 47.2135954999579,13.8757275712888 40.3252247502313,13.8757275712888" />
<polygon style="fill:#8080ff;"   points="45.0849718747371,-19.1757838848871 38.1966011250105,-19.1757838848871 43.7694101250946,-22.4513988289793 50.6577808748212,-22.4513988289793" />
<polygon style="fill:#8080ff;"   points="45.0849718747371,19.1757838848871 50.6577808748212,22.4513988289793 43.7694101250946,22.4513988289793 38.1966011250105,19.1757838848871" />
<polygon style="fill:#8080ff;"   points="45.0849718747371,-8.57567125769049 38.1966011250105,-8.57567125769049 43.7694101250946,-5.30005631359828 50.6577808748212,-5.30005631359828" />
<polygon style="fill:#8080ff;"   points="45.0849718747371,8.57567125769049 38.1966011250105,8.57567125769049 43.7694101250946,5.30005631359828 50.6577808748212,5.30005631359828" />
<polygon style="fill:#8080ff;"   points="45.8980337503154,-27.7514551425776 52.7864045000421,-27.7514551425776 47.2135954999579,-31.0270700866698 40.3252247502313,-31.0270700866698" />
<polygon style="fill:#8080ff;"   points="45.8980337503154,27.7514551425776 52.7864045000421,27.7514551425776 47.2135954999579,31.0270700866698 40.3252247502313,31.0270700866698" />
<polygon style="fill:#ffff80;"   points="52.7864045000421,-27.7514551425776 50.6577808748212,-22.4513988289793 43.7694101250946,-22.4513988289793 45.8980337503154,-27.7514551425776" />
<polygon style="fill:#ffff80;"   points="52.7864045000421,27.7514551425776 50.6577808748212,22.4513988289793 43.7694101250946,22.4513988289793 45.8980337503154,27.7514551425776" />
<polygon style="fill:#ffff80;"   points="52.7864045000421,-0 50.6577808748213,-5.30005631359828 43.7694101250946,-5.30005631359828 45.8980337503155,-1.77635683940025e-15" />
<polygon style="fill:#ffff80;"   points="52.7864045000421,0 50.6577808748213,5.30005631359828 43.7694101250946,5.30005631359828 45.8980337503155,1.77635683940025e-15" />
<polygon style="fill:#ffff80;"   points="50.6577808748212,-22.4513988289793 45.0849718747371,-19.1757838848871 47.2135954999579,-13.8757275712888 52.7864045000421,-17.151342515381" />
<polygon style="fill:#ffff80;"   points="50.6577808748212,22.4513988289793 52.7864045000421,17.151342515381 47.2135954999579,13.8757275712888 45.0849718747371,19.1757838848871" />
<polygon style="fill:#ffff80;"   points="50.6577808748213,-5.30005631359828 52.7864045000421,-10.6001126271966 47.2135954999579,-13.8757275712888 45.0849718747371,-8.57567125769049" />
<polygon style="fill:#ffff80;"   points="50.6577808748213,5.30005631359828 45.0849718747371,8.57567125769049 47.2135954999579,13.8757275712888 52.7864045000421,10.6001126271966" />
<polygon style="fill:#ffff80;"   points="58.3592135001262,-13.8757275712888 52.7864045000421,-10.6001126271966 47.2135954999579,-13.8757275712888 52.7864045000421,-17.151342515381" />
<polygon style="fill:#ffff80;"   points="58.3592135001262,13.8757275712888 52.7864045000421,10.6001126271966 47.2135954999579,13.8757275712888 52.7864045000421,17.151342515381" />
<polygon style="fill:#ffff80;"   points="52.7864045000421,-27.7514551425776 58.3592135001262,-24.4758401984853 56.2305898749054,-19.1757838848871 50.6577808748212,-22.4513988289793" />
<polygon style="fill:#ffff80;"   points="52.7864045000421,27.7514551425776 58.3592135001262,24.4758401984853 56.2305898749054,19.1757838848871 50.6577808748212,22.4513988289793" />
<polygon style="fill:#8080ff;"   points="52.7864045000421,-17.151342515381 58.3592135001262,-13.8757275712888 56.2305898749054,-19.1757838848871 50.6577808748212,-22.4513988289793" />
<polygon style="fill:#8080ff;"   points="52.7864045000421,17.151342515381 58.3592135001262,13.8757275712888 56.2305898749054,19.1757838848871 50.6577808748212,22.4513988289793" />
<polygon style="fill:#8080ff;"   points="52.7864045000421,-10.6001126271966 50.6577808748213,-5.30005631359828 56.2305898749054,-8.57567125769049 58.3592135001262,-13.8757275712888" />
<polygon style="fill:#ffff80;"   points="52.7864045000421,-0 58.3592135001262,-3.27561494409221 56.2305898749054,-8.57567125769049 50.6577808748213,-5.30005631359828" />
<polygon style="fill:#ffff80;"   points="52.7864045000421,0 50.6577808748213,5.30005631359828 56.2305898749054,8.57567125769049 58.3592135001262,3.27561494409221" />
<polygon style="fill:#8080ff;"   points="52.7864045000421,10.6001126271966 50.6577808748213,5.30005631359828 56.2305898749054,8.57567125769049 58.3592135001262,13.8757275712888" />
<polygon style="fill:#8080ff;"   points="60.487837125347,-19.1757838848871 58.3592135001262,-24.4758401984853 56.2305898749054,-19.1757838848871 58.3592135001262,-13.8757275712888" />
<polygon style="fill:#8080ff;"   points="60.487837125347,19.1757838848871 58.3592135001262,24.4758401984853 56.2305898749054,19.1757838848871 58.3592135001262,13.8757275712888" />
<polygon style="fill:#ffff80;"   points="52.7864045000421,0 58.3592135001262,3.27561494409221 63.9320225002103,0 58.3592135001262,-3.27561494409221" />
<polygon style="fill:#8080ff;"   points="60.487837125347,-8.57567125769049 58.3592135001262,-13.8757275712888 56.2305898749054,-8.57567125769049 58.3592135001262,-3.27561494409221" />
<polygon style="fill:#8080ff;"   points="60.487837125347,8.57567125769049 58.3592135001262,3.27561494409221 56.2305898749054,8.57567125769049 58.3592135001262,13.8757275712888" />
<polygon style="fill:#ffff80;"   points="58.3592135001262,-24.4758401984853 60.487837125347,-19.1757838848871 67.3762078750736,-19.1757838848871 65.2475842498528,-24.4758401984854" />
<polygon style="fill:#ffff80;"   points="58.3592135001262,24.4758401984853 60.487837125347,19.1757838848871 67.3762078750736,19.1757838848871 65.2475842498528,24.4758401984854" />
<polygon style="fill:#ffff80;"   points="58.3592135001262,-13.8757275712888 65.2475842498528,-13.8757275712888 67.3762078750736,-19.1757838848871 60.487837125347,-19.1757838848871" />
<polygon style="fill:#ffff80;"   points="58.3592135001262,13.8757275712888 65.2475842498528,13.8757275712888 67.3762078750736,19.1757838848871 60.487837125347,19.1757838848871" />
<polygon style="fill:#ffff80;"   points="58.3592135001262,-13.8757275712888 65.2475842498528,-13.8757275712888 67.3762078750736,-8.57567125769049 60.487837125347,-8.57567125769049" />
<polygon style="fill:#ffff80;"   points="58.3592135001262,-3.27561494409221 65.2475842498528,-3.27561494409221 67.3762078750736,-8.57567125769049 60.487837125347,-8.5756712576905" />
<polygon style="fill:#ffff80;"   points="58.3592135001262,3.27561494409221 65.2475842498528,3.27561494409221 67.3762078750736,8.57567125769049 60.487837125347,8.5756712576905" />
<polygon style="fill:#ffff80;"   points="58.3592135001262,13.8757275712888 65.2475842498528,13.8757275712888 67.3762078750736,8.57567125769049 60.487837125347,8.57567125769049" />
<polygon style="fill:#8080ff;"   points="65.2475842498528,-3.27561494409221 58.3592135001262,-3.27561494409221 63.9320225002103,-0 70.8203932499369,0" />
<polygon style="fill:#8080ff;"   points="65.2475842498528,3.27561494409221 70.8203932499369,0 63.9320225002103,0 58.3592135001262,3.27561494409221" />
<polygon style="fill:#8080ff;"   points="70.8203932499369,-17.151342515381 65.2475842498528,-13.8757275712888 67.3762078750736,-19.1757838848871 72.9490168751577,-22.4513988289793" />
<polygon style="fill:#8080ff;"   points="70.8203932499369,17.151342515381 65.2475842498528,13.8757275712888 67.3762078750736,19.1757838848871 72.9490168751577,22.4513988289793" />
<polygon style="fill:#8080ff;"   points="70.8203932499369,-10.6001126271966 72.9490168751577,-5.30005631359828 67.3762078750736,-8.57567125769049 65.2475842498528,-13.8757275712888" />
<polygon style="fill:#ffff80;"   points="70.8203932499369,-0 72.9490168751577,-5.30005631359828 67.3762078750736,-8.57567125769049 65.2475842498528,-3.27561494409221" />
<polygon style="fill:#ffff80;"   points="70.8203932499369,0 65.2475842498528,3.27561494409221 67.3762078750736,8.57567125769049 72.9490168751578,5.30005631359828" />
<polygon style="fill:#8080ff;"   points="70.8203932499369,10.6001126271966 72.9490168751577,5.30005631359828 67.3762078750736,8.57567125769049 65.2475842498528,13.8757275712888" />
<polygon style="fill:#ffff80;"   points="65.2475842498528,-13.8757275712888 70.8203932499369,-17.151342515381 76.393202250021,-13.8757275712888 70.8203932499369,-10.6001126271966" />
<polygon style="fill:#ffff80;"   points="65.2475842498528,13.8757275712888 70.8203932499369,10.6001126271966 76.393202250021,13.8757275712888 70.8203932499369,17.151342515381" />
<polygon style="fill:#ffff80;"   points="72.9490168751577,-5.30005631359828 78.5218258752418,-8.57567125769049 76.393202250021,-13.8757275712888 70.8203932499369,-10.6001126271966" />
<polygon style="fill:#ffff80;"   points="72.9490168751577,5.30005631359828 78.5218258752418,8.57567125769049 76.393202250021,13.8757275712888 70.8203932499369,10.6001126271966" />
<polygon style="fill:#ffff80;"   points="70.8203932499369,-0 77.7087639996635,-0 79.8373876248843,-5.30005631359828 72.9490168751577,-5.30005631359828" />
<polygon style="fill:#ffff80;"   points="70.8203932499369,0 72.9490168751577,5.30005631359828 79.8373876248843,5.30005631359828 77.7087639996635,1.77635683940025e-15" />
<polygon style="fill:#8080ff;"   points="78.5218258752418,-8.57567125769049 72.9490168751577,-5.30005631359828 79.8373876248843,-5.30005631359828 85.4101966249684,-8.57567125769049" />
<polygon style="fill:#8080ff;"   points="78.5218258752418,8.57567125769049 85.4101966249684,8.57567125769049 79.8373876248843,5.30005631359828 72.9490168751577,5.30005631359828" />
<polygon style="fill:#ffff80;"   points="85.4101966249684,-8.57567125769049 78.5218258752418,-8.57567125769049 76.393202250021,-13.8757275712888 83.2815729997476,-13.8757275712888" />
<polygon style="fill:#ffff80;"   points="85.4101966249684,8.57567125769049 78.5218258752418,8.57567125769049 76.393202250021,13.8757275712888 83.2815729997476,13.8757275712888" />
<polygon style="fill:#8080ff;"   points="83.2815729997476,-3.27561494409221 85.4101966249684,-8.57567125769049 79.8373876248843,-5.30005631359828 77.7087639996635,0" />
<polygon style="fill:#8080ff;"   points="83.2815729997476,3.27561494409221 85.4101966249684,8.57567125769049 79.8373876248843,5.30005631359828 77.7087639996635,0" />
<polygon style="fill:#ffff80;"   points="77.7087639996635,-0 83.2815729997476,-3.27561494409221 88.8543819998318,-0 83.2815729997477,3.27561494409221" />
<polygon style="fill:#ffff80;"   points="85.4101966249684,-8.57567125769049 83.2815729997476,-3.27561494409221 88.8543819998318,-0 90.9830056250526,-5.30005631359828" />
<polygon style="fill:#ffff80;"   points="85.4101966249684,8.57567125769049 90.9830056250526,5.30005631359828 88.8543819998318,0 83.2815729997476,3.27561494409221" />
<polygon style="fill:#8080ff;"   points="93.1116292502734,0 90.9830056250526,5.30005631359828 88.8543819998318,0 90.9830056250526,-5.30005631359828" />
<polygon style="fill:#ffff80;"   points="90.9830056250526,-5.30005631359828 93.1116292502734,-0 100,-0 97.8713763747792,-5.30005631359828" />
<polygon style="fill:#ffff80;"   points="90.9830056250526,5.30005631359828 93.1116292502734,0 100,0 97.8713763747792,5.30005631359828" />
</svg>

